# xmcd
#
# Track frame offsets: 
#        150
#        11002
#        21985
#        35187
#        49225
#        61697
#        71247
#        81865
#        92217
#        106550
#        116342
#        130817
#        140057
#        153762
#        166977
#        180200
#        191590
#        208092
#        219750
#        236177
#        246455
#        259500
#        270470
#
# Disc length: 3738 seconds
#
# Revision: 1
# Processed by: cddbd v1.5.2PL0 Copyright (c) Steve Scherf et al.
# Submitted via: ExactAudioCopy v0.99pb4
#
DISCID=410e9817
DTITLE=Various Artist - Chicago Ain't Nothin' But A Blues Band
DYEAR=1999
DGENRE=Blues
TTITLE0=Sunnyland Slim - Recession Blues
TTITLE1=Sunnyland Slim - Everything's Gonna Be All Right
TTITLE2=Eddy Clearwater - I Don't Know Why
TTITLE3=Eddy Clearwater - A-Minor Cha-Cha
TTITLE4=Eddy Clearwater - Boogie Woogie Baby
TTITLE5=Morris Pejoe - Let's Get High
TTITLE6=Morris Pejoe - Baby I'm Lonely
TTITLE7=Henry Gray - How Can You Do It
TTITLE8=Jo Jo Williams - All Pretty Women
TTITLE9=Jo Jo Williams - Rock 'N' Roll Boogie
TTITLE10=Unknown - Why Did We Have To Part
TTITLE11=Johnny Rogers - I Am A Lucky Lucky Man
TTITLE12=Little Mack Simmons - Blues For Atomic-H
TTITLE13=George And His House Rockers - You Know You Don't Love Me
TTITLE14=George And His House Rockers - Morning Love Blues
TTITLE15=Eddy Clearwater - Hillbilly Blues
TTITLE16=Eddy Clearwater - Jumpin' At Charley's
TTITLE17=Eddy Clearwater - Neckbones Everyday
TTITLE18=Harmonica George - Sad And Blue
TTITLE19=Harmonica George - Sputnik Music
TTITLE20=Jo Jo Williams - Women's World
TTITLE21=Jo Jo Williams - Davy Crockett's Jingle Bells
TTITLE22=Jo Jo Williams - You Can't Live In This Big World By Yourself
EXTD=YEAR: 1999
EXTT0=
EXTT1=
EXTT2=
EXTT3=
EXTT4=
EXTT5=
EXTT6=
EXTT7=
EXTT8=
EXTT9=
EXTT10=
EXTT11=
EXTT12=
EXTT13=
EXTT14=
EXTT15=
EXTT16=
EXTT17=
EXTT18=
EXTT19=
EXTT20=
EXTT21=
EXTT22=
PLAYORDER=
